<?xml version="1.0" encoding="UTF-8" standalone="no"?>
<!-- Created with Inkscape (http://www.inkscape.org/) -->

<svg
   xmlns:dc="http://purl.org/dc/elements/1.1/"
   xmlns:cc="http://creativecommons.org/ns#"
   xmlns:rdf="http://www.w3.org/1999/02/22-rdf-syntax-ns#"
   xmlns:svg="http://www.w3.org/2000/svg"
   xmlns="http://www.w3.org/2000/svg"
   xmlns:sodipodi="http://sodipodi.sourceforge.net/DTD/sodipodi-0.dtd"
   xmlns:inkscape="http://www.inkscape.org/namespaces/inkscape"
   width="41.540348mm"
   height="10.82587mm"
   viewBox="0 0 147.19021 38.35938"
   id="svg2"
   version="1.1"
   inkscape:version="0.91 r13725"
   sodipodi:docname="logo.svg">
  <defs
     id="defs4" />
  <sodipodi:namedview
     id="base"
     pagecolor="#ffffff"
     bordercolor="#666666"
     borderopacity="1.0"
     inkscape:pageopacity="0.0"
     inkscape:pageshadow="2"
     inkscape:zoom="1.4"
     inkscape:cx="-44.302458"
     inkscape:cy="-134.95089"
     inkscape:document-units="px"
     inkscape:current-layer="layer1"
     showgrid="false"
     fit-margin-top="0"
     fit-margin-left="0"
     fit-margin-right="0"
     fit-margin-bottom="0"
     inkscape:window-width="1920"
     inkscape:window-height="1053"
     inkscape:window-x="0"
     inkscape:window-y="27"
     inkscape:window-maximized="1" />
  <metadata
     id="metadata7">
    <rdf:RDF>
      <cc:Work
         rdf:about="">
        <dc:format>image/svg+xml</dc:format>
        <dc:type
           rdf:resource="http://purl.org/dc/dcmitype/StillImage" />
        <dc:title></dc:title>
      </cc:Work>
    </rdf:RDF>
  </metadata>
  <g
     inkscape:label="Layer 1"
     inkscape:groupmode="layer"
     id="layer1"
     transform="translate(-161.19154,-490.44537)">
    <path
       inkscape:connector-curvature="0"
       id="path3341"
       style="font-style:normal;font-variant:normal;font-weight:normal;font-stretch:normal;font-size:medium;line-height:125%;font-family:Yesteryear;-inkscape-font-specification:Yesteryear;letter-spacing:0px;word-spacing:0px;fill:#333333;fill-opacity:1;stroke:none;stroke-width:1px;stroke-linecap:butt;stroke-linejoin:miter;stroke-opacity:1"
       d="m 188.47656,508.49225 q 0.0391,0 0.0391,0.11719 0,0.19531 -0.21484,0.72265 -0.21484,0.50781 -0.625,1.19141 -0.41016,0.68359 -1.01562,1.44531 -0.58594,0.76172 -1.34766,1.44531 -0.39063,0.0977 -0.99609,0.21485 -0.60547,0.0977 -1.38672,0.19531 -0.76172,0.0977 -1.66016,0.21484 -0.89844,0.0977 -1.875,0.19532 -1.15234,1.8164 -2.24609,3.61328 -1.07422,1.79687 -2.03125,3.47656 -0.95703,1.69922 -1.77735,3.26172 -0.80078,1.5625 -1.38672,2.91015 -0.42968,0.17579 -1.26953,0.35157 -0.83984,0.19531 -1.75781,0.37109 -0.89844,0.17578 -1.67969,0.33203 -0.78125,0.15625 -1.09375,0.25391 1.83594,-3.92578 3.69141,-7.40235 1.875,-3.45703 3.82812,-6.66015 -1.01562,0.0781 -1.91406,0.15625 -0.89844,0.0586 -1.58203,0.0976 -0.68359,0.0391 -1.11328,0.0781 -0.42969,0.0195 -0.50781,0.0195 -0.11719,0 -0.11719,-0.15625 0,-0.21484 0.19531,-0.625 0.19531,-0.41016 0.44922,-0.82031 0.27344,-0.42969 0.54688,-0.74219 0.29296,-0.33203 0.44921,-0.37109 1.52344,-0.13672 2.8711,-0.29297 1.36719,-0.15625 2.59765,-0.33203 3.1836,-4.94141 6.52344,-9.27735 3.33985,-4.33593 6.77735,-8.45703 0.0781,-0.0781 0.0781,-0.33203 0,-0.11719 -0.0781,-0.23437 -0.0586,-0.11719 -0.29297,-0.0391 -4.16016,1.13282 -7.51953,2.51953 -3.35938,1.38672 -5.97657,2.8125 -2.61718,1.40625 -4.53125,2.75391 -1.89453,1.34766 -3.125,2.44141 -1.23047,1.07422 -1.8164,1.77734 Q 165,506.42194 165,506.53912 q 0,0.0586 0.0391,0.17578 0.0586,0.0977 0.35156,0.0977 0.625,0 1.32813,-0.17578 0.72266,-0.17578 1.42578,-0.44922 0.72266,-0.27344 1.38672,-0.58594 0.66406,-0.33203 1.23047,-0.625 0.0195,0.44922 0.0391,1.05469 0.0391,0.58594 0.0586,1.19141 0.0391,0.60547 0.0586,1.17187 0.0391,0.54688 0.0391,0.89844 -0.23437,0.11719 -0.76172,0.25391 -0.52734,0.11718 -1.28906,0.23437 -0.74219,0.0977 -1.69922,0.17578 -0.9375,0.0586 -2.01172,0.0586 -0.11719,0 -0.19531,-0.0195 -0.0586,-0.0195 -0.11719,-0.0195 -0.17578,-0.0195 -0.52734,-0.3125 -0.33203,-0.29297 -0.74219,-0.74218 -0.41016,-0.44922 -0.83984,-0.97657 -0.42969,-0.54687 -0.78125,-1.03515 -0.35157,-0.50782 -0.58594,-0.91797 -0.21484,-0.42969 -0.21484,-0.625 0,-1.19141 0.8789,-2.46094 0.89844,-1.28906 2.40235,-2.55859 1.52343,-1.26953 3.51562,-2.5 1.99219,-1.23047 4.19922,-2.32422 2.20703,-1.09375 4.49219,-2.01172 2.28515,-0.9375 4.375,-1.60156 2.08984,-0.66407 3.84765,-1.03516 1.77735,-0.39062 2.92969,-0.39062 0.33203,0 0.76172,0.2539 0.44922,0.25391 0.87891,0.66406 0.44921,0.41016 0.8789,0.91797 0.42969,0.50782 0.76172,1.01563 0.35156,0.50781 0.56641,0.97656 0.21484,0.44922 0.23437,0.74219 0,0.11719 -0.41015,0.78125 -0.39063,0.64453 -1.09375,1.71875 -0.70313,1.05469 -1.66016,2.5 -0.95703,1.42578 -2.08984,3.125 -1.13282,1.67969 -2.40235,3.57422 -1.25,1.875 -2.53906,3.86718 1.75781,-0.41015 3.00781,-0.78125 1.25,-0.39062 2.07031,-0.68359 0.82032,-0.29297 1.23047,-0.46875 0.41016,-0.19531 0.44922,-0.19531 z" />
    <path
       inkscape:connector-curvature="0"
       id="path3343"
       style="font-style:normal;font-variant:normal;font-weight:normal;font-stretch:normal;font-size:medium;line-height:125%;font-family:Yesteryear;-inkscape-font-specification:Yesteryear;letter-spacing:0px;word-spacing:0px;fill:#333333;fill-opacity:1;stroke:none;stroke-width:1px;stroke-linecap:butt;stroke-linejoin:miter;stroke-opacity:1"
       d="m 202.16797,516.12897 q -1.79688,1.75781 -3.39844,2.94922 -1.58203,1.1914 -3.02734,1.91406 -1.44532,0.72265 -2.77344,1.03515 -1.30859,0.3125 -2.55859,0.3125 -0.52735,0 -1.17188,-0.39062 -0.64453,-0.39063 -1.19141,-0.95703 -0.5664,-0.54688 -0.9375,-1.15235 -0.37109,-0.60546 -0.37109,-1.03515 0,-1.60156 0.44922,-2.92969 0.42969,-1.34766 1.15234,-2.42187 0.72266,-1.07422 1.64063,-1.89454 0.9375,-0.82031 1.93359,-1.36718 1.01563,-0.54688 2.01172,-0.82032 0.99609,-0.27343 1.83594,-0.27343 0.60547,0 1.1914,0.35156 0.60547,0.35156 1.09375,0.85937 0.48829,0.50782 0.78125,1.07422 0.3125,0.54688 0.3125,0.95703 0,0.66407 -0.5664,1.36719 -0.54688,0.6836 -1.5625,1.40625 -1.01563,0.72266 -2.44141,1.48438 -1.42578,0.74218 -3.14453,1.5039 -0.0586,0.46875 -0.0586,0.91797 0,0.60547 0.2539,0.82031 0.27344,0.21485 0.9961,0.21485 1.28906,0 2.42187,-0.42969 1.15235,-0.42969 2.20703,-1.11328 1.05469,-0.68359 2.03125,-1.5625 0.97657,-0.87891 1.9336,-1.77734 l 0.95703,0.95703 z m -6.875,-4.88282 q -0.39063,0 -0.85938,0.42969 -0.46875,0.41016 -0.9375,1.09375 -0.46875,0.6836 -0.89843,1.58203 -0.42969,0.87891 -0.74219,1.83594 0.72265,-0.46875 1.40625,-0.99609 0.70312,-0.52735 1.25,-1.09375 0.54687,-0.58594 0.8789,-1.19141 0.33204,-0.60547 0.33204,-1.21094 0,-0.17578 -0.11719,-0.3125 -0.0977,-0.13672 -0.3125,-0.13672 z" />
    <path
       inkscape:connector-curvature="0"
       id="path3345"
       style="font-style:normal;font-variant:normal;font-weight:normal;font-stretch:normal;font-size:medium;line-height:125%;font-family:Yesteryear;-inkscape-font-specification:Yesteryear;letter-spacing:0px;word-spacing:0px;fill:#333333;fill-opacity:1;stroke:none;stroke-width:1px;stroke-linecap:butt;stroke-linejoin:miter;stroke-opacity:1"
       d="m 214.74609,516.12897 q -1.79687,1.75781 -3.39843,2.94922 -1.58204,1.1914 -3.02735,1.91406 -1.44531,0.72265 -2.77344,1.03515 -1.30859,0.3125 -2.55859,0.3125 -0.52734,0 -1.17187,-0.39062 -0.64454,-0.39063 -1.19141,-0.95703 -0.56641,-0.54688 -0.9375,-1.15235 -0.37109,-0.60546 -0.37109,-1.03515 0,-1.60156 0.44921,-2.92969 0.42969,-1.34766 1.15235,-2.42187 0.72265,-1.07422 1.64062,-1.89454 0.9375,-0.82031 1.9336,-1.36718 1.01562,-0.54688 2.01172,-0.82032 0.99609,-0.27343 1.83593,-0.27343 0.60547,0 1.19141,0.35156 0.60547,0.35156 1.09375,0.85937 0.48828,0.50782 0.78125,1.07422 0.3125,0.54688 0.3125,0.95703 0,0.66407 -0.56641,1.36719 -0.54687,0.6836 -1.5625,1.40625 -1.01562,0.72266 -2.4414,1.48438 -1.42578,0.74218 -3.14453,1.5039 -0.0586,0.46875 -0.0586,0.91797 0,0.60547 0.25391,0.82031 0.27344,0.21485 0.99609,0.21485 1.28906,0 2.42188,-0.42969 1.15234,-0.42969 2.20703,-1.11328 1.05469,-0.68359 2.03125,-1.5625 0.97656,-0.87891 1.93359,-1.77734 l 0.95703,0.95703 z m -6.875,-4.88282 q -0.39062,0 -0.85937,0.42969 -0.46875,0.41016 -0.9375,1.09375 -0.46875,0.6836 -0.89844,1.58203 -0.42969,0.87891 -0.74219,1.83594 0.72266,-0.46875 1.40625,-0.99609 0.70313,-0.52735 1.25,-1.09375 0.54688,-0.58594 0.87891,-1.19141 0.33203,-0.60547 0.33203,-1.21094 0,-0.17578 -0.11719,-0.3125 -0.0977,-0.13672 -0.3125,-0.13672 z" />
    <path
       inkscape:connector-curvature="0"
       id="path3347"
       style="font-style:normal;font-variant:normal;font-weight:normal;font-stretch:normal;font-size:medium;line-height:125%;font-family:Yesteryear;-inkscape-font-specification:Yesteryear;letter-spacing:0px;word-spacing:0px;fill:#333333;fill-opacity:1;stroke:none;stroke-width:1px;stroke-linecap:butt;stroke-linejoin:miter;stroke-opacity:1"
       d="m 225.44922,518.76569 q 0,0.48828 0.3125,0.48828 0.37109,0 0.8789,-0.23438 0.52735,-0.23437 1.09375,-0.60547 0.56641,-0.39062 1.15235,-0.85937 0.58594,-0.46875 1.09375,-0.91797 0.52734,-0.44922 0.9375,-0.83984 0.41015,-0.39063 0.64453,-0.625 0.19531,0.17578 0.46875,0.44921 0.27344,0.27344 0.48828,0.50782 -0.50781,0.50781 -1.15234,1.13281 -0.64453,0.625 -1.38672,1.28906 -0.72266,0.64453 -1.52344,1.26953 -0.78125,0.60547 -1.5625,1.09375 -0.78125,0.46875 -1.52344,0.76172 -0.74218,0.29297 -1.40625,0.29297 -0.35156,0 -0.85937,-0.33203 -0.50781,-0.3125 -0.97656,-0.78125 -0.46875,-0.46875 -0.80079,-0.97656 -0.3125,-0.52735 -0.3125,-0.9375 0,-0.89844 0.11719,-1.875 -0.8789,0.78125 -1.69922,1.48437 -0.82031,0.70313 -1.66015,1.32813 -0.82032,0.60547 -1.69922,1.11328 -0.85938,0.52734 -1.83594,0.89844 -0.29297,0.11718 -0.50781,0.11718 -0.19531,0 -0.50781,-0.19531 -0.3125,-0.19531 -0.60547,-0.50781 -0.29297,-0.29297 -0.50782,-0.66406 -0.21484,-0.39063 -0.21484,-0.74219 0,-0.80078 0.3125,-1.77735 0.29297,-0.99609 0.87891,-2.03125 0.5664,-1.05468 1.40625,-2.08984 0.82031,-1.05469 1.875,-1.97266 1.05468,-0.9375 2.32422,-1.67968 1.26953,-0.76172 2.71484,-1.21094 0.27344,0.0391 0.70312,0.25391 0.42969,0.19531 0.80079,0.41015 0.70312,-2.01172 1.60156,-4.02344 0.91797,-2.03125 1.93359,-3.88671 1.03516,-1.875 2.14844,-3.4961 1.11328,-1.64062 2.22656,-2.89062 1.11328,-1.26953 2.1875,-2.05078 1.09375,-0.78125 2.07031,-0.95704 0.42969,0 0.89844,0.29297 0.48828,0.27344 0.91797,0.6836 0.42969,0.39062 0.72266,0.82031 0.3125,0.42969 0.39062,0.72266 0,0.89843 -0.44922,2.08984 -0.44922,1.19141 -1.25,2.57812 -0.78125,1.36719 -1.875,2.8711 -1.07422,1.5039 -2.32422,3.0664 -1.25,1.54297 -2.63671,3.08594 -1.36719,1.54297 -2.75391,2.98828 -0.58594,1.99219 -0.9375,3.8086 -0.33203,1.79687 -0.33203,3.26172 z m 9.80469,-23.90625 q -0.33204,0 -0.82032,0.48828 -0.46875,0.48828 -1.07422,1.36718 -0.58593,0.85938 -1.25,2.05079 -0.66406,1.1914 -1.34765,2.59765 -0.6836,1.40625 -1.36719,2.98828 -0.68359,1.58203 -1.28906,3.20313 1.46484,-1.79688 2.77344,-3.59375 1.32812,-1.81641 2.32421,-3.4375 0.9961,-1.6211 1.58204,-2.96875 0.58593,-1.34766 0.58593,-2.22656 0,-0.11719 -0.0195,-0.29297 0,-0.17578 -0.0977,-0.17578 z m -18.53516,23.24218 q 0.64453,0 1.91406,-0.89843 1.26953,-0.91797 2.8711,-2.44141 0.17578,-0.89844 0.42968,-1.81641 0.25391,-0.9375 0.56641,-1.89453 -1.13281,0.76172 -2.22656,1.73828 -1.07422,0.97657 -1.91407,1.9336 -0.83984,0.95703 -1.36718,1.79687 -0.50782,0.82031 -0.50782,1.25 0,0.33203 0.23438,0.33203 z" />
    <path
       inkscape:connector-curvature="0"
       id="path3349"
       style="font-style:normal;font-variant:normal;font-weight:normal;font-stretch:normal;font-size:medium;line-height:125%;font-family:Yesteryear;-inkscape-font-specification:Yesteryear;letter-spacing:0px;word-spacing:0px;fill:#333333;fill-opacity:1;stroke:none;stroke-width:1px;stroke-linecap:butt;stroke-linejoin:miter;stroke-opacity:1"
       d="m 261.69922,495.7774 q 0,0.9375 -0.74219,2.08985 -0.74219,1.13281 -1.91406,2.30469 -1.15235,1.15234 -2.57813,2.26562 -1.42578,1.09375 -2.8125,1.97266 -1.15234,0.72265 -2.22656,1.32812 -1.05469,0.58594 -1.99219,1.11328 -0.91797,0.52735 -1.67968,1.01563 -0.76172,0.46875 -1.32813,0.95703 1.40625,0.25391 2.5,0.50781 1.09375,0.23438 1.73828,0.56641 0.46875,0.33203 0.95703,0.99609 0.48828,0.64453 0.87891,1.32813 0.39062,0.68359 0.625,1.25 0.25391,0.54687 0.25391,0.66406 0,0.85937 -0.44922,1.81641 -0.42969,0.95703 -1.21094,1.91406 -0.76172,0.9375 -1.83594,1.8164 -1.05469,0.87891 -2.32422,1.58204 -1.25,0.72265 -2.65625,1.21093 -1.40625,0.50782 -2.85156,0.66407 -0.64453,-0.52735 -1.25,-1.13282 -0.60547,-0.58593 -1.09375,-1.09375 -0.48828,-0.52734 -0.82031,-0.89843 -0.33203,-0.39063 -0.41016,-0.48829 -0.70312,1.09375 -1.42578,1.99219 -0.72266,0.89844 -1.44531,1.50391 -0.70313,0.625 -1.42578,0.9375 -0.70313,0.33203 -1.40625,0.29297 -0.29297,-0.0195 -0.60547,-0.23438 -0.3125,-0.19531 -0.60547,-0.50781 -0.29297,-0.3125 -0.54688,-0.68359 -0.27343,-0.3711 -0.46875,-0.72266 -0.21484,-0.33203 -0.33203,-0.625 -0.11718,-0.27344 -0.11718,-0.39063 0,-2.05078 0.8789,-4.57031 0.85938,-2.51953 2.36328,-5.21484 1.50391,-2.69531 3.55469,-5.39063 2.05078,-2.71484 4.41406,-5.13672 0.78125,-2.8125 1.26953,-5.46875 0.48829,-2.65625 0.52735,-4.86328 1.28906,0.6836 2.07031,1.34766 0.78125,0.64453 1.23047,1.15234 0.50781,0.60547 0.74219,1.15235 0.11718,0.35156 0.11718,0.99609 0,0.11719 -0.0195,0.25391 0,0.11718 -0.0195,0.2539 2.73438,-1.95312 5.42969,-3.10547 2.71484,-1.17187 5.19531,-1.17187 0.3125,0 0.72266,0.23437 0.41015,0.23438 0.82031,0.625 0.42969,0.39063 0.83984,0.87891 0.42969,0.46875 0.74219,0.97656 0.33203,0.48828 0.52735,0.95703 0.19531,0.44922 0.19531,0.78125 z m -18.4961,14.0625 q -1.03515,2.65625 -2.22656,5.15625 -1.17187,2.48047 -2.46094,4.49219 2.22657,-0.19531 4.14063,-0.64453 1.91406,-0.46875 3.45703,-1.23047 1.54297,-0.76172 2.69531,-1.875 1.17188,-1.11328 1.91407,-2.61719 -0.39063,-0.21484 -0.85938,-0.39062 -0.44922,-0.17578 -0.95703,-0.3125 -0.50781,-0.13672 -1.03516,-0.23438 -0.50781,-0.11718 -0.99609,-0.21484 -1.13281,-0.19531 -2.34375,-0.3125 -0.27344,-0.0391 -0.64453,-0.58594 -0.35156,-0.54687 -0.6836,-1.23047 z m 3.04688,-9.27734 q -0.33203,1.21094 -0.74219,2.53906 -0.39062,1.3086 -0.85937,2.71485 1.75781,-1.42578 3.76953,-2.69532 2.03125,-1.26953 4.02344,-2.57812 1.99218,-1.32813 3.76953,-2.8125 1.77734,-1.50391 3.04687,-3.39844 0.0781,-0.0976 0.0586,-0.23437 0,-0.13672 -0.0781,-0.25391 -0.0781,-0.13672 -0.21484,-0.21484 -0.11719,-0.0977 -0.29297,-0.0977 -1.09375,0 -2.51953,0.52734 -1.40625,0.50782 -3.02735,1.44532 -1.62109,0.91797 -3.39843,2.22656 -1.75782,1.28906 -3.53516,2.83203 z m -13.39844,19.98047 q 0.17578,0 0.50781,-0.42969 0.35157,-0.44922 0.80079,-1.23047 0.46875,-0.80078 1.01562,-1.91406 0.56641,-1.13281 1.17188,-2.48047 0.60546,-1.36719 1.23046,-2.92969 0.64454,-1.5625 1.26954,-3.24218 -1.15235,1.46484 -2.16797,2.96875 -1.01563,1.48437 -1.83594,2.96875 -0.80078,1.48437 -1.38672,2.94922 -0.56641,1.44531 -0.83984,2.8125 -0.0586,0.27343 0.0195,0.41015 0.0977,0.11719 0.21484,0.11719 z" />
    <path
       inkscape:connector-curvature="0"
       id="path3351"
       style="font-style:normal;font-variant:normal;font-weight:normal;font-stretch:normal;font-size:medium;line-height:125%;font-family:Yesteryear;-inkscape-font-specification:Yesteryear;letter-spacing:0px;word-spacing:0px;fill:#333333;fill-opacity:1;stroke:none;stroke-width:1px;stroke-linecap:butt;stroke-linejoin:miter;stroke-opacity:1"
       d="m 259.17969,518.94147 q 0,0.58593 0.42968,0.58593 0.44922,0 1.19141,-0.70312 0.74219,-0.72266 1.54297,-1.81641 -0.0391,-0.21484 -0.0586,-0.37109 0,-0.17578 0,-0.3125 0,-0.39063 0.0781,-0.91797 0.0977,-0.54687 0.44922,-1.23047 0.23437,-0.52734 0.56641,-1.03515 0.27343,-0.44922 0.66406,-0.95704 0.39062,-0.52734 0.85937,-0.97656 l 0.11719,-0.11719 q 0.19531,0.23438 0.50781,0.64454 0.33203,0.39062 0.64453,0.82031 0.33204,0.41015 0.56641,0.76172 0.25391,0.35156 0.3125,0.48828 0,0.83984 -0.3125,1.67969 -0.29297,0.83984 -0.80078,1.66015 1.17187,-0.0781 2.16797,-0.58594 1.01562,-0.52734 2.10937,-1.69921 0.17578,0.17578 0.44922,0.48828 0.29297,0.29297 0.46875,0.50781 -0.82031,0.85937 -1.62109,1.42578 -0.78125,0.56641 -1.58203,0.89844 -0.78125,0.33203 -1.60157,0.48828 -0.82031,0.13672 -1.67968,0.13672 -0.66407,0.70312 -1.42578,1.28906 -0.76172,0.58594 -1.5625,1.01563 -0.78125,0.42968 -1.5625,0.66406 -0.78125,0.23437 -1.48438,0.23437 -0.58594,0 -1.21094,-0.35156 -0.625,-0.35156 -1.13281,-0.85937 -0.50781,-0.52735 -0.83984,-1.11329 -0.33203,-0.58593 -0.33203,-1.03515 0,-1.48438 0.41015,-2.94922 0.39063,-1.46484 1.25,-2.73438 0.83985,-1.28906 2.14844,-2.26562 1.32812,-0.97656 3.14453,-1.48438 0.0586,-0.0391 0.19531,-0.0586 0.15625,-0.0195 0.25391,-0.0195 0.27344,0 0.56641,0.21484 0.3125,0.19532 0.5664,0.44922 0.27344,0.25391 0.44922,0.50781 0.17578,0.23438 0.17578,0.3125 -0.0391,0.0977 -0.29297,0.25391 -0.2539,0.13672 -0.68359,0.48828 -0.42969,0.35156 -1.01563,1.01563 -0.58593,0.64453 -1.28906,1.71875 -1.05469,1.58203 -1.42578,2.87109 -0.37109,1.26953 -0.37109,1.97266 z" />
    <path
       inkscape:connector-curvature="0"
       id="path3353"
       style="font-style:normal;font-variant:normal;font-weight:normal;font-stretch:normal;font-size:medium;line-height:125%;font-family:Yesteryear;-inkscape-font-specification:Yesteryear;letter-spacing:0px;word-spacing:0px;fill:#333333;fill-opacity:1;stroke:none;stroke-width:1px;stroke-linecap:butt;stroke-linejoin:miter;stroke-opacity:1"
       d="m 272.30469,518.94147 q 0,0.58593 0.42968,0.58593 0.44922,0 1.19141,-0.70312 0.74219,-0.72266 1.54297,-1.81641 -0.0391,-0.21484 -0.0586,-0.37109 0,-0.17578 0,-0.3125 0,-0.39063 0.0781,-0.91797 0.0977,-0.54687 0.44922,-1.23047 0.23437,-0.52734 0.56641,-1.03515 0.27343,-0.44922 0.66406,-0.95704 0.39062,-0.52734 0.85937,-0.97656 l 0.11719,-0.11719 q 0.19531,0.23438 0.50781,0.64454 0.33203,0.39062 0.64453,0.82031 0.33204,0.41015 0.56641,0.76172 0.25391,0.35156 0.3125,0.48828 0,0.83984 -0.3125,1.67969 -0.29297,0.83984 -0.80078,1.66015 1.17187,-0.0781 2.16797,-0.58594 1.01562,-0.52734 2.10937,-1.69921 0.17578,0.17578 0.44922,0.48828 0.29297,0.29297 0.46875,0.50781 -0.82031,0.85937 -1.62109,1.42578 -0.78125,0.56641 -1.58203,0.89844 -0.78125,0.33203 -1.60157,0.48828 -0.82031,0.13672 -1.67968,0.13672 -0.66407,0.70312 -1.42578,1.28906 -0.76172,0.58594 -1.5625,1.01563 -0.78125,0.42968 -1.5625,0.66406 -0.78125,0.23437 -1.48438,0.23437 -0.58594,0 -1.21094,-0.35156 -0.625,-0.35156 -1.13281,-0.85937 -0.50781,-0.52735 -0.83984,-1.11329 -0.33203,-0.58593 -0.33203,-1.03515 0,-1.48438 0.41015,-2.94922 0.39063,-1.46484 1.25,-2.73438 0.83985,-1.28906 2.14844,-2.26562 1.32812,-0.97656 3.14453,-1.48438 0.0586,-0.0391 0.19531,-0.0586 0.15625,-0.0195 0.25391,-0.0195 0.27344,0 0.56641,0.21484 0.3125,0.19532 0.5664,0.44922 0.27344,0.25391 0.44922,0.50781 0.17578,0.23438 0.17578,0.3125 -0.0391,0.0977 -0.29297,0.25391 -0.2539,0.13672 -0.68359,0.48828 -0.42969,0.35156 -1.01563,1.01563 -0.58593,0.64453 -1.28906,1.71875 -1.05469,1.58203 -1.42578,2.87109 -0.37109,1.26953 -0.37109,1.97266 z" />
    <path
       inkscape:connector-curvature="0"
       id="path3355"
       style="font-style:normal;font-variant:normal;font-weight:normal;font-stretch:normal;font-size:medium;line-height:125%;font-family:Yesteryear;-inkscape-font-specification:Yesteryear;letter-spacing:0px;word-spacing:0px;fill:#333333;fill-opacity:1;stroke:none;stroke-width:1px;stroke-linecap:butt;stroke-linejoin:miter;stroke-opacity:1"
       d="m 282.69531,515.54303 q 0.44922,-0.42969 1.03516,-0.97656 0.5664,-0.54688 1.13281,-1.19141 0.58594,-0.64453 1.07422,-1.38672 0.50781,-0.74219 0.80078,-1.60156 0.0781,-0.44922 0.23438,-0.9375 0.17578,-0.50781 0.37109,-0.91797 0.21484,-0.41016 0.41016,-0.68359 0.19531,-0.27344 0.35156,-0.27344 0.23437,0.13672 0.70312,0.52734 0.46875,0.3711 0.9375,0.80078 0.46875,0.42969 0.82032,0.80079 0.37109,0.35156 0.37109,0.42968 -0.23438,0.89844 -0.23438,1.6211 0.0195,0.72265 0.11719,1.42578 0.11719,0.70312 0.23438,1.5039 0.13672,0.78125 0.13672,1.81641 0,0.625 -0.21485,1.44531 -0.19531,0.80078 -0.70312,1.44532 0.99609,-0.58594 1.97265,-1.3086 0.97657,-0.74219 1.73828,-1.38672 0.89844,-0.76172 1.71875,-1.52343 l 0.87891,0.95703 q -0.64453,0.60547 -1.40625,1.28906 -0.74219,0.68359 -1.5625,1.34766 -0.80078,0.66406 -1.64062,1.26953 -0.83985,0.60547 -1.66016,1.07422 -0.82031,0.46875 -1.58203,0.74218 -0.76172,0.27344 -1.42578,0.27344 -0.56641,0 -1.25,-0.27344 -0.6836,-0.27343 -1.28907,-0.66406 -0.60546,-0.39062 -1.05468,-0.82031 -0.44922,-0.42969 -0.52735,-0.72266 0,-0.0391 0.0781,-0.15625 0.0781,-0.13672 0.19531,-0.27344 0.0977,-0.13671 0.21484,-0.23437 0.0977,-0.11719 0.15625,-0.11719 0.11719,0 0.46875,0.17578 0.35157,0.17578 1.17188,0.17578 0.44922,0 0.76172,-0.23437 0.33203,-0.23438 0.54687,-0.625 0.21485,-0.39063 0.3125,-0.89844 0.0977,-0.50781 0.0977,-1.07422 0,-0.82031 -0.0781,-1.58203 -0.0781,-0.78125 -0.17578,-1.5039 -0.33203,0.39062 -0.76172,0.82031 -0.42968,0.42969 -0.8789,0.85937 -0.42969,0.41016 -0.87891,0.82032 -0.42969,0.39062 -0.78125,0.70312 l -0.9375,-0.95703 0,0 z" />
    <path
       inkscape:connector-curvature="0"
       id="path3357"
       style="font-style:normal;font-variant:normal;font-weight:normal;font-stretch:normal;font-size:medium;line-height:125%;font-family:Yesteryear;-inkscape-font-specification:Yesteryear;letter-spacing:0px;word-spacing:0px;fill:#333333;fill-opacity:1;stroke:none;stroke-width:1px;stroke-linecap:butt;stroke-linejoin:miter;stroke-opacity:1"
       d="m 297.55859,522.00787 q -0.33203,0 -0.8789,-0.3125 -0.52735,-0.29297 -1.03516,-0.74218 -0.50781,-0.42969 -0.87891,-0.89844 -0.37109,-0.46875 -0.37109,-0.80078 0,-0.58594 0.33203,-1.85547 0.3125,-1.26953 0.83985,-2.89063 0.52734,-1.64062 1.1914,-3.49609 0.6836,-1.85547 1.36719,-3.63281 l -2.75391,0 -0.0195,0 q -0.0195,0 -0.0195,-0.0391 0,-0.11718 0.0977,-0.33203 0.0781,-0.23437 0.21484,-0.46875 0.11719,-0.2539 0.29297,-0.44922 0.15625,-0.21484 0.3125,-0.27343 l 2.53906,-0.11719 q 0.54688,-1.32813 1.03516,-2.44141 0.50781,-1.13281 0.89844,-1.93359 0.0976,-0.21484 0.19531,-0.44922 0.11719,-0.25391 0.3125,-0.48828 0.21484,-0.25391 0.54687,-0.50781 0.35157,-0.27344 0.9375,-0.54688 0.42969,-0.21484 1.03516,-0.46875 0.625,-0.2539 1.21094,-0.46875 0.60547,-0.21484 1.09375,-0.35156 0.48828,-0.15625 0.70312,-0.15625 0.19531,0 0.19531,0.0781 l 0,0.0391 q 0,0.0195 -0.0391,0.0977 -0.11719,0.19532 -0.42969,0.85938 -0.3125,0.64453 -0.78125,1.64062 -0.44921,0.97657 -1.01562,2.2461 -0.54688,1.25 -1.13281,2.65625 l 4.6875,-0.17578 q 0.19531,0 0.11718,0.23437 -0.0781,0.23438 -0.29296,0.54688 -0.21485,0.3125 -0.50782,0.64453 -0.27343,0.33203 -0.46875,0.50781 -0.0391,0.0391 -0.15625,0.0781 -0.11718,0.0391 -0.29297,0.0391 l -3.86718,0 q -0.70313,1.69922 -1.34766,3.4375 -0.64453,1.73828 -1.15234,3.30078 -0.50782,1.5625 -0.82032,2.87109 -0.29296,1.3086 -0.29296,2.14844 0,0.11719 0.11718,0.11719 0.21485,0 0.64453,-0.23438 0.42969,-0.2539 0.95704,-0.64453 0.54687,-0.39062 1.15234,-0.85937 0.60547,-0.46875 1.15234,-0.91797 0.54688,-0.46875 0.97657,-0.83985 0.44921,-0.39062 0.68359,-0.58593 0.17578,0.17578 0.41016,0.44921 0.2539,0.27344 0.46875,0.50782 -0.42969,0.42968 -1.07422,1.05468 -0.64453,0.60547 -1.40625,1.25 -0.74219,0.64454 -1.5625,1.28907 -0.80078,0.64453 -1.58203,1.15234 -0.76172,0.50781 -1.42579,0.82031 -0.66406,0.3125 -1.11328,0.3125 z" />
  </g>
</svg>
